<?xml version="1.0" encoding="UTF-8" standalone="no"?>
<!DOCTYPE svg PUBLIC "-//W3C//DTD SVG 1.1//EN"
 "http://www.w3.org/Graphics/SVG/1.1/DTD/svg11.dtd">
<!-- Generated by graphviz version 2.38.0 (20140413.2041)
 -->
<!-- Title: %3 Pages: 1 -->
<svg width="208pt" height="347pt"
 viewBox="0.00 0.00 208.49 347.38" xmlns="http://www.w3.org/2000/svg" xmlns:xlink="http://www.w3.org/1999/xlink">
<g id="graph0" class="graph" transform="scale(1 1) rotate(0) translate(4 343.379)">
<title>%3</title>
<polygon fill="white" stroke="none" points="-4,4 -4,-343.379 204.495,-343.379 204.495,4 -4,4"/>
<!-- T1 -->
<g id="node1" class="node"><title>T1</title>
<ellipse fill="#cccccc" stroke="black" cx="29.2474" cy="-126.992" rx="20.5982" ry="20.5982"/>
<text text-anchor="middle" x="29.2474" y="-123.292" font-family="Times,serif" font-size="14.00">T1</text>
</g>
<!-- d_T1 -->
<g id="node4" class="node"><title>d_T1</title>
<ellipse fill="none" stroke="black" cx="29.2474" cy="-29.2474" rx="29.4969" ry="29.4969"/>
<text text-anchor="middle" x="29.2474" y="-25.5474" font-family="Times,serif" font-size="14.00">d_T1</text>
</g>
<!-- T1&#45;&gt;d_T1 -->
<g id="edge1" class="edge"><title>T1&#45;&gt;d_T1</title>
<path fill="none" stroke="black" d="M29.2474,-106.154C29.2474,-95.3486 29.2474,-81.6018 29.2474,-68.784"/>
<polygon fill="black" stroke="black" points="32.7475,-68.7774 29.2474,-58.7774 25.7475,-68.7775 32.7475,-68.7774"/>
</g>
<!-- d_sim -->
<g id="node2" class="node"><title>d_sim</title>
<ellipse fill="none" stroke="black" cx="100.247" cy="-126.992" rx="32.4942" ry="32.4942"/>
<text text-anchor="middle" x="100.247" y="-123.292" font-family="Times,serif" font-size="14.00">d_sim</text>
</g>
<!-- sim -->
<g id="node3" class="node"><title>sim</title>
<ellipse fill="#cccccc" stroke="black" cx="100.247" cy="-219.537" rx="24.0958" ry="24.0958"/>
<text text-anchor="middle" x="100.247" y="-215.837" font-family="Times,serif" font-size="14.00">sim</text>
</g>
<!-- sim&#45;&gt;T1 -->
<g id="edge3" class="edge"><title>sim&#45;&gt;T1</title>
<path fill="none" stroke="black" d="M85.8795,-200.214C74.939,-186.262 59.7884,-166.94 47.9105,-151.793"/>
<polygon fill="black" stroke="black" points="50.6207,-149.577 41.6959,-143.867 45.1123,-153.896 50.6207,-149.577"/>
</g>
<!-- sim&#45;&gt;d_sim -->
<g id="edge2" class="edge"><title>sim&#45;&gt;d_sim</title>
<path fill="none" stroke="black" d="M100.247,-195.219C100.247,-187.461 100.247,-178.568 100.247,-169.845"/>
<polygon fill="black" stroke="black" points="103.748,-169.761 100.247,-159.762 96.7475,-169.762 103.748,-169.761"/>
</g>
<!-- T2 -->
<g id="node5" class="node"><title>T2</title>
<ellipse fill="#cccccc" stroke="black" cx="171.247" cy="-126.992" rx="20.5982" ry="20.5982"/>
<text text-anchor="middle" x="171.247" y="-123.292" font-family="Times,serif" font-size="14.00">T2</text>
</g>
<!-- sim&#45;&gt;T2 -->
<g id="edge4" class="edge"><title>sim&#45;&gt;T2</title>
<path fill="none" stroke="black" d="M114.615,-200.214C125.556,-186.262 140.706,-166.94 152.584,-151.793"/>
<polygon fill="black" stroke="black" points="155.383,-153.896 158.799,-143.867 149.874,-149.577 155.383,-153.896"/>
</g>
<!-- d_T2 -->
<g id="node6" class="node"><title>d_T2</title>
<ellipse fill="none" stroke="black" cx="171.247" cy="-29.2474" rx="29.4969" ry="29.4969"/>
<text text-anchor="middle" x="171.247" y="-25.5474" font-family="Times,serif" font-size="14.00">d_T2</text>
</g>
<!-- T2&#45;&gt;d_T2 -->
<g id="edge5" class="edge"><title>T2&#45;&gt;d_T2</title>
<path fill="none" stroke="black" d="M171.247,-106.154C171.247,-95.3486 171.247,-81.6018 171.247,-68.784"/>
<polygon fill="black" stroke="black" points="174.748,-68.7774 171.247,-58.7774 167.748,-68.7775 174.748,-68.7774"/>
</g>
<!-- alpha -->
<g id="node7" class="node"><title>alpha</title>
<ellipse fill="none" stroke="black" cx="100.247" cy="-309.482" rx="29.795" ry="29.795"/>
<text text-anchor="middle" x="100.247" y="-305.782" font-family="Times,serif" font-size="14.00">alpha</text>
</g>
<!-- alpha&#45;&gt;sim -->
<g id="edge6" class="edge"><title>alpha&#45;&gt;sim</title>
<path fill="none" stroke="black" d="M100.247,-279.198C100.247,-271.117 100.247,-262.289 100.247,-253.991"/>
<polygon fill="black" stroke="black" points="103.748,-253.861 100.247,-243.861 96.7475,-253.861 103.748,-253.861"/>
</g>
</g>
</svg>
