<?xml version="1.0" encoding="UTF-8" standalone="no"?>
<!DOCTYPE svg PUBLIC "-//W3C//DTD SVG 1.1//EN"
 "http://www.w3.org/Graphics/SVG/1.1/DTD/svg11.dtd">
<!-- Generated by graphviz version 2.38.0 (20140413.2041)
 -->
<!-- Title: %3 Pages: 1 -->
<svg width="106pt" height="360pt"
 viewBox="0.00 0.00 106.30 360.09" xmlns="http://www.w3.org/2000/svg" xmlns:xlink="http://www.w3.org/1999/xlink">
<g id="graph0" class="graph" transform="scale(1 1) rotate(0) translate(4 356.091)">
<title>%3</title>
<polygon fill="white" stroke="none" points="-4,4 -4,-356.091 102.296,-356.091 102.296,4 -4,4"/>
<!-- t1 -->
<g id="node1" class="node"><title>t1</title>
<ellipse fill="none" stroke="black" cx="49.1482" cy="-334.091" rx="18" ry="18"/>
<text text-anchor="middle" x="49.1482" y="-330.391" font-family="Times,serif" font-size="14.00">t1</text>
</g>
<!-- t2 -->
<g id="node2" class="node"><title>t2</title>
<ellipse fill="none" stroke="black" cx="26.1482" cy="-262.091" rx="18" ry="18"/>
<text text-anchor="middle" x="26.1482" y="-258.391" font-family="Times,serif" font-size="14.00">t2</text>
</g>
<!-- t1&#45;&gt;t2 -->
<g id="edge1" class="edge"><title>t1&#45;&gt;t2</title>
<path fill="none" stroke="black" d="M43.8137,-316.856C41.124,-308.67 37.7954,-298.539 34.7552,-289.286"/>
<polygon fill="black" stroke="black" points="38.0602,-288.132 31.6135,-279.725 31.41,-290.317 38.0602,-288.132"/>
</g>
<!-- MA2 -->
<g id="node6" class="node"><title>MA2</title>
<ellipse fill="#cccccc" stroke="black" cx="49.1482" cy="-178.194" rx="29.795" ry="29.795"/>
<text text-anchor="middle" x="49.1482" y="-174.494" font-family="Times,serif" font-size="14.00">MA2</text>
</g>
<!-- t1&#45;&gt;MA2 -->
<g id="edge2" class="edge"><title>t1&#45;&gt;MA2</title>
<path fill="none" stroke="black" d="M50.7731,-315.924C51.6721,-305.558 52.6965,-292.078 53.1482,-280.091 53.9133,-259.788 53.1658,-237.188 52.1184,-218.533"/>
<polygon fill="black" stroke="black" points="55.5987,-218.101 51.495,-208.334 48.6117,-218.528 55.5987,-218.101"/>
</g>
<!-- t2&#45;&gt;MA2 -->
<g id="edge3" class="edge"><title>t2&#45;&gt;MA2</title>
<path fill="none" stroke="black" d="M30.8026,-244.518C33.0238,-236.609 35.7808,-226.792 38.4766,-217.193"/>
<polygon fill="black" stroke="black" points="41.9047,-217.931 41.239,-207.357 35.1654,-216.038 41.9047,-217.931"/>
</g>
<!-- S2 -->
<g id="node3" class="node"><title>S2</title>
<ellipse fill="#cccccc" stroke="black" cx="20.1482" cy="-92.1482" rx="20.2975" ry="20.2975"/>
<text text-anchor="middle" x="20.1482" y="-88.4482" font-family="Times,serif" font-size="14.00">S2</text>
</g>
<!-- d -->
<g id="node4" class="node"><title>d</title>
<ellipse fill="none" stroke="black" cx="49.1482" cy="-18" rx="18" ry="18"/>
<text text-anchor="middle" x="49.1482" y="-14.3" font-family="Times,serif" font-size="14.00">d</text>
</g>
<!-- S2&#45;&gt;d -->
<g id="edge4" class="edge"><title>S2&#45;&gt;d</title>
<path fill="none" stroke="black" d="M27.3168,-73.3138C30.8024,-64.642 35.055,-54.062 38.8778,-44.5513"/>
<polygon fill="black" stroke="black" points="42.1738,-45.736 42.6558,-35.1522 35.6788,-43.1253 42.1738,-45.736"/>
</g>
<!-- S1 -->
<g id="node5" class="node"><title>S1</title>
<ellipse fill="#cccccc" stroke="black" cx="78.1482" cy="-92.1482" rx="20.2975" ry="20.2975"/>
<text text-anchor="middle" x="78.1482" y="-88.4482" font-family="Times,serif" font-size="14.00">S1</text>
</g>
<!-- S1&#45;&gt;d -->
<g id="edge5" class="edge"><title>S1&#45;&gt;d</title>
<path fill="none" stroke="black" d="M70.9797,-73.3138C67.4941,-64.642 63.2414,-54.062 59.4186,-44.5513"/>
<polygon fill="black" stroke="black" points="62.6176,-43.1253 55.6406,-35.1522 56.1227,-45.736 62.6176,-43.1253"/>
</g>
<!-- MA2&#45;&gt;S2 -->
<g id="edge7" class="edge"><title>MA2&#45;&gt;S2</title>
<path fill="none" stroke="black" d="M39.6525,-149.674C36.4742,-140.463 32.9303,-130.192 29.7443,-120.959"/>
<polygon fill="black" stroke="black" points="33.0325,-119.758 26.462,-111.446 26.4153,-122.041 33.0325,-119.758"/>
</g>
<!-- MA2&#45;&gt;S1 -->
<g id="edge6" class="edge"><title>MA2&#45;&gt;S1</title>
<path fill="none" stroke="black" d="M58.6439,-149.674C61.8222,-140.463 65.3662,-130.192 68.5521,-120.959"/>
<polygon fill="black" stroke="black" points="71.8811,-122.041 71.8344,-111.446 65.264,-119.758 71.8811,-122.041"/>
</g>
</g>
</svg>
