<?xml version="1.0" encoding="UTF-8" standalone="no"?>
<!DOCTYPE svg PUBLIC "-//W3C//DTD SVG 1.1//EN"
 "http://www.w3.org/Graphics/SVG/1.1/DTD/svg11.dtd">
<!-- Generated by graphviz version 2.38.0 (20140413.2041)
 -->
<!-- Title: %3 Pages: 1 -->
<svg width="106pt" height="360pt"
 viewBox="0.00 0.00 106.30 360.09" xmlns="http://www.w3.org/2000/svg" xmlns:xlink="http://www.w3.org/1999/xlink">
<g id="graph0" class="graph" transform="scale(1 1) rotate(0) translate(4 356.091)">
<title>%3</title>
<polygon fill="white" stroke="none" points="-4,4 -4,-356.091 102.296,-356.091 102.296,4 -4,4"/>
<!-- MA2 -->
<g id="node1" class="node"><title>MA2</title>
<ellipse fill="#cccccc" stroke="black" cx="49.1482" cy="-178.194" rx="29.795" ry="29.795"/>
<text text-anchor="middle" x="49.1482" y="-174.494" font-family="Times,serif" font-size="14.00">MA2</text>
</g>
<!-- S2 -->
<g id="node3" class="node"><title>S2</title>
<ellipse fill="#cccccc" stroke="black" cx="20.1482" cy="-92.1482" rx="20.2975" ry="20.2975"/>
<text text-anchor="middle" x="20.1482" y="-88.4482" font-family="Times,serif" font-size="14.00">S2</text>
</g>
<!-- MA2&#45;&gt;S2 -->
<g id="edge1" class="edge"><title>MA2&#45;&gt;S2</title>
<path fill="none" stroke="black" d="M39.6525,-149.674C36.4742,-140.463 32.9303,-130.192 29.7443,-120.959"/>
<polygon fill="black" stroke="black" points="33.0325,-119.758 26.462,-111.446 26.4153,-122.041 33.0325,-119.758"/>
</g>
<!-- S1 -->
<g id="node6" class="node"><title>S1</title>
<ellipse fill="#cccccc" stroke="black" cx="78.1482" cy="-92.1482" rx="20.2975" ry="20.2975"/>
<text text-anchor="middle" x="78.1482" y="-88.4482" font-family="Times,serif" font-size="14.00">S1</text>
</g>
<!-- MA2&#45;&gt;S1 -->
<g id="edge2" class="edge"><title>MA2&#45;&gt;S1</title>
<path fill="none" stroke="black" d="M58.6439,-149.674C61.8222,-140.463 65.3662,-130.192 68.5521,-120.959"/>
<polygon fill="black" stroke="black" points="71.8811,-122.041 71.8344,-111.446 65.264,-119.758 71.8811,-122.041"/>
</g>
<!-- t1 -->
<g id="node2" class="node"><title>t1</title>
<ellipse fill="none" stroke="black" cx="49.1482" cy="-334.091" rx="18" ry="18"/>
<text text-anchor="middle" x="49.1482" y="-330.391" font-family="Times,serif" font-size="14.00">t1</text>
</g>
<!-- t1&#45;&gt;MA2 -->
<g id="edge3" class="edge"><title>t1&#45;&gt;MA2</title>
<path fill="none" stroke="black" d="M47.5234,-315.924C46.6244,-305.558 45.5999,-292.078 45.1482,-280.091 44.3831,-259.788 45.1307,-237.188 46.178,-218.533"/>
<polygon fill="black" stroke="black" points="49.6847,-218.528 46.8015,-208.334 42.6977,-218.101 49.6847,-218.528"/>
</g>
<!-- t2 -->
<g id="node4" class="node"><title>t2</title>
<ellipse fill="none" stroke="black" cx="72.1482" cy="-262.091" rx="18" ry="18"/>
<text text-anchor="middle" x="72.1482" y="-258.391" font-family="Times,serif" font-size="14.00">t2</text>
</g>
<!-- t1&#45;&gt;t2 -->
<g id="edge4" class="edge"><title>t1&#45;&gt;t2</title>
<path fill="none" stroke="black" d="M54.4827,-316.856C57.1724,-308.67 60.501,-298.539 63.5412,-289.286"/>
<polygon fill="black" stroke="black" points="66.8865,-290.317 66.683,-279.725 60.2362,-288.132 66.8865,-290.317"/>
</g>
<!-- d -->
<g id="node5" class="node"><title>d</title>
<ellipse fill="none" stroke="black" cx="49.1482" cy="-18" rx="18" ry="18"/>
<text text-anchor="middle" x="49.1482" y="-14.3" font-family="Times,serif" font-size="14.00">d</text>
</g>
<!-- S2&#45;&gt;d -->
<g id="edge5" class="edge"><title>S2&#45;&gt;d</title>
<path fill="none" stroke="black" d="M27.3168,-73.3138C30.8024,-64.642 35.055,-54.062 38.8778,-44.5513"/>
<polygon fill="black" stroke="black" points="42.1738,-45.736 42.6558,-35.1522 35.6788,-43.1253 42.1738,-45.736"/>
</g>
<!-- t2&#45;&gt;MA2 -->
<g id="edge6" class="edge"><title>t2&#45;&gt;MA2</title>
<path fill="none" stroke="black" d="M67.4938,-244.518C65.2726,-236.609 62.5157,-226.792 59.8198,-217.193"/>
<polygon fill="black" stroke="black" points="63.131,-216.038 57.0575,-207.357 56.3917,-217.931 63.131,-216.038"/>
</g>
<!-- S1&#45;&gt;d -->
<g id="edge7" class="edge"><title>S1&#45;&gt;d</title>
<path fill="none" stroke="black" d="M70.9797,-73.3138C67.4941,-64.642 63.2414,-54.062 59.4186,-44.5513"/>
<polygon fill="black" stroke="black" points="62.6176,-43.1253 55.6406,-35.1522 56.1227,-45.736 62.6176,-43.1253"/>
</g>
</g>
</svg>
