<?xml version="1.0" encoding="UTF-8" standalone="no"?>
<!DOCTYPE svg PUBLIC "-//W3C//DTD SVG 1.1//EN"
 "http://www.w3.org/Graphics/SVG/1.1/DTD/svg11.dtd">
<!-- Generated by graphviz version 2.38.0 (20140413.2041)
 -->
<!-- Title: %3 Pages: 1 -->
<svg width="106pt" height="264pt"
 viewBox="0.00 0.00 106.30 264.30" xmlns="http://www.w3.org/2000/svg" xmlns:xlink="http://www.w3.org/1999/xlink">
<g id="graph0" class="graph" transform="scale(1 1) rotate(0) translate(4 260.296)">
<title>%3</title>
<polygon fill="white" stroke="none" points="-4,4 -4,-260.296 102.296,-260.296 102.296,4 -4,4"/>
<!-- t2 -->
<g id="node1" class="node"><title>t2</title>
<ellipse fill="none" stroke="black" cx="22.1482" cy="-238.296" rx="18" ry="18"/>
<text text-anchor="middle" x="22.1482" y="-234.596" font-family="Times,serif" font-size="14.00">t2</text>
</g>
<!-- Y -->
<g id="node4" class="node"><title>Y</title>
<ellipse fill="#cccccc" stroke="black" cx="49.1482" cy="-166.296" rx="18" ry="18"/>
<text text-anchor="middle" x="49.1482" y="-162.596" font-family="Times,serif" font-size="14.00">Y</text>
</g>
<!-- t2&#45;&gt;Y -->
<g id="edge1" class="edge"><title>t2&#45;&gt;Y</title>
<path fill="none" stroke="black" d="M28.4104,-221.061C31.6478,-212.668 35.6735,-202.231 39.3144,-192.792"/>
<polygon fill="black" stroke="black" points="42.5867,-194.033 42.92,-183.444 36.0557,-191.514 42.5867,-194.033"/>
</g>
<!-- d -->
<g id="node2" class="node"><title>d</title>
<ellipse fill="none" stroke="black" cx="49.1482" cy="-18" rx="18" ry="18"/>
<text text-anchor="middle" x="49.1482" y="-14.3" font-family="Times,serif" font-size="14.00">d</text>
</g>
<!-- t1 -->
<g id="node3" class="node"><title>t1</title>
<ellipse fill="none" stroke="black" cx="76.1482" cy="-238.296" rx="18" ry="18"/>
<text text-anchor="middle" x="76.1482" y="-234.596" font-family="Times,serif" font-size="14.00">t1</text>
</g>
<!-- t1&#45;&gt;Y -->
<g id="edge2" class="edge"><title>t1&#45;&gt;Y</title>
<path fill="none" stroke="black" d="M69.886,-221.061C66.6486,-212.668 62.6229,-202.231 58.9821,-192.792"/>
<polygon fill="black" stroke="black" points="62.2408,-191.514 55.3765,-183.444 55.7097,-194.033 62.2408,-191.514"/>
</g>
<!-- S2 -->
<g id="node5" class="node"><title>S2</title>
<ellipse fill="#cccccc" stroke="black" cx="20.1482" cy="-92.1482" rx="20.2975" ry="20.2975"/>
<text text-anchor="middle" x="20.1482" y="-88.4482" font-family="Times,serif" font-size="14.00">S2</text>
</g>
<!-- Y&#45;&gt;S2 -->
<g id="edge3" class="edge"><title>Y&#45;&gt;S2</title>
<path fill="none" stroke="black" d="M42.7122,-149.284C39.3081,-140.815 35.0345,-130.183 31.1248,-120.456"/>
<polygon fill="black" stroke="black" points="34.359,-119.118 27.382,-111.145 27.8641,-121.729 34.359,-119.118"/>
</g>
<!-- S1 -->
<g id="node6" class="node"><title>S1</title>
<ellipse fill="#cccccc" stroke="black" cx="78.1482" cy="-92.1482" rx="20.2975" ry="20.2975"/>
<text text-anchor="middle" x="78.1482" y="-88.4482" font-family="Times,serif" font-size="14.00">S1</text>
</g>
<!-- Y&#45;&gt;S1 -->
<g id="edge4" class="edge"><title>Y&#45;&gt;S1</title>
<path fill="none" stroke="black" d="M55.5843,-149.284C58.9884,-140.815 63.2619,-130.183 67.1716,-120.456"/>
<polygon fill="black" stroke="black" points="70.4323,-121.729 70.9144,-111.145 63.9374,-119.118 70.4323,-121.729"/>
</g>
<!-- S2&#45;&gt;d -->
<g id="edge5" class="edge"><title>S2&#45;&gt;d</title>
<path fill="none" stroke="black" d="M27.3168,-73.3138C30.8024,-64.642 35.055,-54.062 38.8778,-44.5513"/>
<polygon fill="black" stroke="black" points="42.1738,-45.736 42.6558,-35.1522 35.6788,-43.1253 42.1738,-45.736"/>
</g>
<!-- S1&#45;&gt;d -->
<g id="edge6" class="edge"><title>S1&#45;&gt;d</title>
<path fill="none" stroke="black" d="M70.9797,-73.3138C67.4941,-64.642 63.2414,-54.062 59.4186,-44.5513"/>
<polygon fill="black" stroke="black" points="62.6176,-43.1253 55.6406,-35.1522 56.1227,-45.736 62.6176,-43.1253"/>
</g>
</g>
</svg>
