<?xml version="1.0" encoding="UTF-8" standalone="no"?>
<!DOCTYPE svg PUBLIC "-//W3C//DTD SVG 1.1//EN"
 "http://www.w3.org/Graphics/SVG/1.1/DTD/svg11.dtd">
<!-- Generated by graphviz version 2.38.0 (20140413.2041)
 -->
<!-- Title: %3 Pages: 1 -->
<svg width="136pt" height="305pt"
 viewBox="0.00 0.00 136.25 305.39" xmlns="http://www.w3.org/2000/svg" xmlns:xlink="http://www.w3.org/1999/xlink">
<g id="graph0" class="graph" transform="scale(1 1) rotate(0) translate(4 301.386)">
<title>%3</title>
<polygon fill="white" stroke="none" points="-4,4 -4,-301.386 132.245,-301.386 132.245,4 -4,4"/>
<!-- mu -->
<g id="node1" class="node"><title>mu</title>
<ellipse fill="none" stroke="black" cx="22.748" cy="-264.889" rx="22.9987" ry="22.9987"/>
<text text-anchor="middle" x="22.748" y="-261.189" font-family="Times,serif" font-size="14.00">mu</text>
</g>
<!-- sim -->
<g id="node6" class="node"><title>sim</title>
<ellipse fill="#cccccc" stroke="black" cx="58.748" cy="-172.344" rx="24.0958" ry="24.0958"/>
<text text-anchor="middle" x="58.748" y="-168.644" font-family="Times,serif" font-size="14.00">sim</text>
</g>
<!-- mu&#45;&gt;sim -->
<g id="edge1" class="edge"><title>mu&#45;&gt;sim</title>
<path fill="none" stroke="black" d="M30.9169,-243.343C35.4796,-231.868 41.2579,-217.334 46.3655,-204.488"/>
<polygon fill="black" stroke="black" points="49.667,-205.657 50.1093,-195.072 43.1623,-203.071 49.667,-205.657"/>
</g>
<!-- S2 -->
<g id="node2" class="node"><title>S2</title>
<ellipse fill="#cccccc" stroke="black" cx="29.748" cy="-92.1482" rx="20.2975" ry="20.2975"/>
<text text-anchor="middle" x="29.748" y="-88.4482" font-family="Times,serif" font-size="14.00">S2</text>
</g>
<!-- d -->
<g id="node5" class="node"><title>d</title>
<ellipse fill="none" stroke="black" cx="58.748" cy="-18" rx="18" ry="18"/>
<text text-anchor="middle" x="58.748" y="-14.3" font-family="Times,serif" font-size="14.00">d</text>
</g>
<!-- S2&#45;&gt;d -->
<g id="edge2" class="edge"><title>S2&#45;&gt;d</title>
<path fill="none" stroke="black" d="M36.9165,-73.3138C40.4021,-64.642 44.6548,-54.062 48.4776,-44.5513"/>
<polygon fill="black" stroke="black" points="51.7735,-45.736 52.2556,-35.1522 45.2786,-43.1253 51.7735,-45.736"/>
</g>
<!-- sigma -->
<g id="node3" class="node"><title>sigma</title>
<ellipse fill="none" stroke="black" cx="95.748" cy="-264.889" rx="32.4942" ry="32.4942"/>
<text text-anchor="middle" x="95.748" y="-261.189" font-family="Times,serif" font-size="14.00">sigma</text>
</g>
<!-- sigma&#45;&gt;sim -->
<g id="edge3" class="edge"><title>sigma&#45;&gt;sim</title>
<path fill="none" stroke="black" d="M83.7351,-234.492C79.7787,-224.81 75.369,-214.019 71.3686,-204.229"/>
<polygon fill="black" stroke="black" points="74.5593,-202.784 67.5366,-194.852 68.0795,-205.432 74.5593,-202.784"/>
</g>
<!-- S1 -->
<g id="node4" class="node"><title>S1</title>
<ellipse fill="#cccccc" stroke="black" cx="87.748" cy="-92.1482" rx="20.2975" ry="20.2975"/>
<text text-anchor="middle" x="87.748" y="-88.4482" font-family="Times,serif" font-size="14.00">S1</text>
</g>
<!-- S1&#45;&gt;d -->
<g id="edge4" class="edge"><title>S1&#45;&gt;d</title>
<path fill="none" stroke="black" d="M80.5794,-73.3138C77.0938,-64.642 72.8412,-54.062 69.0184,-44.5513"/>
<polygon fill="black" stroke="black" points="72.2174,-43.1253 65.2403,-35.1522 65.7224,-45.736 72.2174,-43.1253"/>
</g>
<!-- sim&#45;&gt;S2 -->
<g id="edge5" class="edge"><title>sim&#45;&gt;S2</title>
<path fill="none" stroke="black" d="M50.6699,-149.562C47.3612,-140.641 43.4934,-130.212 39.9897,-120.764"/>
<polygon fill="black" stroke="black" points="43.2677,-119.537 36.5089,-111.378 36.7045,-121.971 43.2677,-119.537"/>
</g>
<!-- sim&#45;&gt;S1 -->
<g id="edge6" class="edge"><title>sim&#45;&gt;S1</title>
<path fill="none" stroke="black" d="M66.8261,-149.562C70.1348,-140.641 74.0025,-130.212 77.5063,-120.764"/>
<polygon fill="black" stroke="black" points="80.7914,-121.971 80.9871,-111.378 74.2282,-119.537 80.7914,-121.971"/>
</g>
</g>
</svg>
